<?xml version="1.0" encoding="utf-8"?>
<!-- Generator: Adobe Illustrator 16.0.0, SVG Export Plug-In . SVG Version: 6.00 Build 0)  -->
<!DOCTYPE svg PUBLIC "-//W3C//DTD SVG 1.1//EN" "http://www.w3.org/Graphics/SVG/1.1/DTD/svg11.dtd">
<svg version="1.1" id="Vrstva_1" xmlns="http://www.w3.org/2000/svg" xmlns:xlink="http://www.w3.org/1999/xlink" x="0px" y="0px"
	 width="619.123px" height="443.889px" viewBox="0 0 619.123 443.889" enable-background="new 0 0 619.123 443.889"
	 xml:space="preserve">
<g id="color" display="none">
	<g display="inline">
		<linearGradient id="SVGID_1_" gradientUnits="userSpaceOnUse" x1="-916.689" y1="42.3193" x2="-398.9575" y2="41.465">
			<stop  offset="0" style="stop-color:#692C90"/>
			<stop  offset="1" style="stop-color:#C63292"/>
		</linearGradient>
		<path fill="url(#SVGID_1_)" d="M-827.803,57.533l-5.827-8.509h1.155l3.196-2.235V26.088l-3.196-2.238h-19.768v36.685h6.418V28.299
			h10.154v16.229h-8.14l1.453,2.115l4.891,7.128l3.124,4.575l1.5,2.188h7.054L-827.803,57.533z"/>
		<linearGradient id="SVGID_2_" gradientUnits="userSpaceOnUse" x1="-916.6875" y1="42.2559" x2="-398.9698" y2="41.4015">
			<stop  offset="0" style="stop-color:#692C90"/>
			<stop  offset="1" style="stop-color:#C63292"/>
		</linearGradient>
		<path fill="url(#SVGID_2_)" d="M-860.651,23.85h-19.767v36.685h6.394V28.299h10.178v16.229h-8.139l3.049,4.497h8.285l3.196-2.235
			V26.088L-860.651,23.85z"/>
		<linearGradient id="SVGID_3_" gradientUnits="userSpaceOnUse" x1="-916.688" y1="42.417" x2="-398.9602" y2="41.5627">
			<stop  offset="0" style="stop-color:#692C90"/>
			<stop  offset="1" style="stop-color:#C63292"/>
		</linearGradient>
		<path fill="url(#SVGID_3_)" d="M-801.939,23.9h-16.572l-3.196,2.237v32.208l3.196,2.237h16.572l3.196-2.237V26.138L-801.939,23.9z
			 M-805.135,56.131h-10.178V28.35h10.178V56.131z"/>
		<linearGradient id="SVGID_4_" gradientUnits="userSpaceOnUse" x1="-916.688" y1="42.4014" x2="-398.9596" y2="41.547">
			<stop  offset="0" style="stop-color:#692C90"/>
			<stop  offset="1" style="stop-color:#C63292"/>
		</linearGradient>
		<path fill="url(#SVGID_4_)" d="M-772.731,23.85h-19.768v36.685h6.394V28.299h10.178v16.229h-8.137l3.047,4.497h8.286l3.198-2.235
			V26.088L-772.731,23.85z"/>
		<linearGradient id="SVGID_5_" gradientUnits="userSpaceOnUse" x1="-916.688" y1="42.4639" x2="-398.9612" y2="41.6095">
			<stop  offset="0" style="stop-color:#692C90"/>
			<stop  offset="1" style="stop-color:#C63292"/>
		</linearGradient>
		<path fill="url(#SVGID_5_)" d="M-739.883,57.533l-5.827-8.509h1.155l3.198-2.235V26.088l-3.198-2.238h-19.741v36.685h6.392V28.299
			h10.154v16.229h-8.137l1.474,2.115l4.13,6.046l3.861,5.657l1.5,2.188h7.057L-739.883,57.533z"/>
		<linearGradient id="SVGID_6_" gradientUnits="userSpaceOnUse" x1="-916.6821" y1="42.5615" x2="-398.9692" y2="41.7072">
			<stop  offset="0" style="stop-color:#692C90"/>
			<stop  offset="1" style="stop-color:#C63292"/>
		</linearGradient>
		<path fill="url(#SVGID_6_)" d="M-714.02,23.9h-16.569l-3.197,2.237v32.208l3.197,2.237h16.569l3.198-2.237V26.138L-714.02,23.9z
			 M-717.215,56.131h-10.179V28.35h10.179V56.131z"/>
		<linearGradient id="SVGID_7_" gradientUnits="userSpaceOnUse" x1="-916.6802" y1="42.5576" x2="-398.9717" y2="41.7033">
			<stop  offset="0" style="stop-color:#692C90"/>
			<stop  offset="1" style="stop-color:#C63292"/>
		</linearGradient>
		<path fill="url(#SVGID_7_)" d="M-688.007,56.083h-10.178V28.299h10.178V56.083z M-684.809,23.85h-19.768v36.685h19.768
			l3.195-2.237V26.088L-684.809,23.85z"/>
		<linearGradient id="SVGID_8_" gradientUnits="userSpaceOnUse" x1="-916.6914" y1="42.6045" x2="-398.9609" y2="41.7502">
			<stop  offset="0" style="stop-color:#692C90"/>
			<stop  offset="1" style="stop-color:#C63292"/>
		</linearGradient>
		<path fill="url(#SVGID_8_)" d="M-659.831,23.85v32.233h-10.154V23.85h-6.392v34.447l3.195,2.237h16.572l3.196-2.237V23.85
			H-659.831z"/>
		<linearGradient id="SVGID_9_" gradientUnits="userSpaceOnUse" x1="-916.689" y1="42.6602" x2="-398.9576" y2="41.8058">
			<stop  offset="0" style="stop-color:#692C90"/>
			<stop  offset="1" style="stop-color:#C63292"/>
		</linearGradient>
		<path fill="url(#SVGID_9_)" d="M-620.297,57.682l-10.3-17.681l8.999-13.176l2.041-2.976h-7.107l-1.475,2.164l-2.876,4.204
			l-8.604,12.588V23.85h-6.395v36.685h6.395v-7.352l5.31-7.697l6.121,10.497l1.352,2.314l1.304,2.237h6.91L-620.297,57.682z"/>
		<linearGradient id="SVGID_10_" gradientUnits="userSpaceOnUse" x1="-916.6846" y1="42.7041" x2="-398.9643" y2="41.8498">
			<stop  offset="0" style="stop-color:#692C90"/>
			<stop  offset="1" style="stop-color:#C63292"/>
		</linearGradient>
		<path fill="url(#SVGID_10_)" d="M-614.315,23.85l1.524,2.238l1.549,2.211h7.254v32.235h6.391V28.299h7.229l1.549-2.211
			l1.524-2.238H-614.315z"/>
		<linearGradient id="SVGID_11_" gradientUnits="userSpaceOnUse" x1="-916.6553" y1="28.5889" x2="-399.0303" y2="27.7347">
			<stop  offset="0" style="stop-color:#692C90"/>
			<stop  offset="1" style="stop-color:#C63292"/>
		</linearGradient>
		<path fill="url(#SVGID_11_)" d="M-631.015,30.218l2.876-4.204L-631.015,30.218z"/>
	</g>
	<g display="inline">
		<linearGradient id="SVGID_12_" gradientUnits="userSpaceOnUse" x1="-755.3555" y1="-65.7046" x2="-710.2158" y2="-65.7046">
			<stop  offset="0" style="stop-color:#692C90"/>
			<stop  offset="1" style="stop-color:#C63292"/>
		</linearGradient>
		<path fill="url(#SVGID_12_)" d="M-716.498-101.758h-38.857v72.106h12.569v-63.36h20.008v31.898h-16l5.993,8.84h16.288l6.282-4.394
			v-40.692L-716.498-101.758z"/>
		<linearGradient id="SVGID_13_" gradientUnits="userSpaceOnUse" x1="-815.4116" y1="-72.3481" x2="-652.3018" y2="-72.3481">
			<stop  offset="0" style="stop-color:#692C90"/>
			<stop  offset="1" style="stop-color:#C63292"/>
		</linearGradient>
		<path fill="url(#SVGID_13_)" d="M-652.302-67.083l-10.199,17.551l1.759-13.12l2.594-4.439l-1.604-2.814l1.1-8.255L-652.302-67.083
			z M-692.089-13.586l-5.527,9.485l-16.939-0.033l-0.28-0.094L-692.089-13.586z M-759.497-4.259l-10.987-0.038l-8.677-15.129
			L-759.497-4.259z M-775.66-121.004l4.194-7.193l5.58-2.314l13.215,0.05L-775.66-121.004z M-740.337-132.899l12.209-5.027
			l6.048,0.023l6.601,5.083L-740.337-132.899z M-708.24-130.354l8.31,0.024l4.785,3.702l6.568,11.438L-708.24-130.354z
			 M-680.298-105.71l10.48,8.082l2.989,5.215l-1.107,8.276L-680.298-105.71z M-673.829-40.117l-1.763,13.123l-3.002,5.183
			l-7.73,3.188L-673.829-40.117z M-670.596-45.661l6.641-11.44l-1.759,13.124l-6.644,11.442L-670.596-45.661z M-662.317-69.409
			l-0.796,5.94l-6.644,11.439l3.293-24.604L-662.317-69.409z M-661.772-73.409l-4.144-7.225l1.1-8.255l4.143,7.225L-661.772-73.409z
			 M-658.441-98.344l-1.681,12.658l-4.143-7.225l0.426-3.205l-4.089-3.15l-6.566-11.441L-658.441-98.344z M-673.021-103.203
			l-10.48-8.082l-6.569-11.438l10.485,8.082L-673.021-103.203z M-692.886-137.812l10.117,17.6l-10.48-8.077l-2.593-4.482
			l-3.251,0.002l-6.574-5.074L-692.886-137.812z M-703.12-132.779l-8.333-0.034l-6.576-5.071l8.312,0.026L-703.12-132.779z
			 M-723.052-148.141l10.134,7.803l-8.313-0.029l-2.595-1.983l-4.785,1.966l-13.194-0.043L-723.052-148.141z M-747.744-137.972
			l13.2,0.02l-12.185,5.037l-13.225-0.026L-747.744-137.972z M-774.44-138.061l20.283,0.067l-12.211,5.027l-5.169-0.009
			l-1.645,2.812l-7.7,3.177L-774.44-138.061z M-782.914-123.501l7.69-3.152l-4.166,7.198l-7.69,3.152L-782.914-123.501z
			 M-781.425-115.972l-12.451,21.46l1.752-13.102l3.004-5.18L-781.425-115.972z M-797.113-88.971l-6.648,11.465l1.75-13.1
			l6.653-11.465L-797.113-88.971z M-798.463-117.076l11.818-4.876l-4.19,7.191l-2.994,1.229l-0.667,5.103l-6.672,11.457
			L-798.463-117.076z M-815.412-67.524l10.168-17.537l-1.755,13.101l-2.566,4.445l1.602,2.814l-1.097,8.254L-815.412-67.524z
			 M-805.421-65.205l0.795-5.94l6.677-11.458l-3.304,24.631L-805.421-65.205z M-805.944-61.2l4.144,7.227l-1.106,8.276l-4.166-7.231
			L-805.944-61.2z M-809.253-36.545l1.659-12.377l4.142,7.226l-0.427,3.207l4.069,3.141l1.467,2.533L-809.253-36.545z
			 M-797.913-37.011l-2.975-5.184l1.1-8.254l12.24,21.323L-797.913-37.011z M-774.839,3.226l-18.142-31.595l3.983,1.342l4.769,3.674
			l12.332,21.509l15.611,0.04l6.615,5.111L-774.839,3.226z M-739.641,3.328l-6.002-0.012l-6.591-5.104l24.833,0.072L-739.641,3.328z
			 M-733.228,3.351l12.24-5.042l6.026,0.019l14.932,5.117L-733.228,3.351z M-693.129,3.189l-14.166-4.848l11.093,0.021l7.847-13.501
			l7.719-3.164L-693.129,3.189z"/>
		<linearGradient id="SVGID_14_" gradientUnits="userSpaceOnUse" x1="-742.5557" y1="-22.9131" x2="-742.4092" y2="-22.9131">
			<stop  offset="0" style="stop-color:#692C90"/>
			<stop  offset="1" style="stop-color:#C63292"/>
		</linearGradient>
		<path fill="url(#SVGID_14_)" d="M-742.556-22.962v0.098h0.146C-742.459-22.888-742.507-22.914-742.556-22.962z"/>
	</g>
</g>
<g id="gray">
	<g>
		<path fill="#F16724" d="M111.896,437.4l-12.393-18.095h2.457l6.795-4.754v-44.025l-6.795-4.76H59.921v78.017h13.648v-68.555
			h21.595v34.513H77.852l3.091,4.499l10.4,15.158l6.644,9.73l3.192,4.654h15.001L111.896,437.4z"/>
		<path fill="#F16724" d="M42.039,365.767H0v78.017h13.597v-68.555h21.647v34.513H17.934l6.486,9.564h17.619l6.795-4.754v-44.025
			L42.039,365.767z"/>
		<path fill="#F16724" d="M166.898,365.875h-35.242l-6.797,4.758v68.496l6.797,4.758h35.242l6.797-4.758v-68.496L166.898,365.875z
			 M160.103,434.418h-21.645v-59.081h21.645V434.418z"/>
		<path fill="#F16724" d="M229.016,365.767h-42.039v78.017h13.598v-68.555h21.645v34.513h-17.305l6.48,9.564h17.621l6.8-4.754
			v-44.025L229.016,365.767z"/>
		<path fill="#F16724" d="M298.872,437.4l-12.395-18.095h2.459l6.8-4.754v-44.025l-6.8-4.76h-41.985v78.017h13.596v-68.555h21.592
			v34.513h-17.306l3.136,4.499l8.783,12.857l8.209,12.031l3.192,4.654h15.008L298.872,437.4z"/>
		<path fill="#F16724" d="M353.875,365.875h-35.238l-6.799,4.758v68.496l6.799,4.758h35.238l6.802-4.758v-68.496L353.875,365.875z
			 M347.079,434.418h-21.646v-59.081h21.646V434.418z"/>
		<path fill="#F16724" d="M409.195,434.316h-21.645v-59.088h21.645V434.316z M415.997,365.767h-42.039v78.017h42.039l6.795-4.759
			v-68.498L415.997,365.767z"/>
		<path fill="#F16724" d="M469.116,365.767v68.55h-21.595v-68.55h-13.594v73.258l6.796,4.759h35.243l6.798-4.759v-73.258H469.116z"
			/>
		<path fill="#F16724" d="M553.192,437.716l-21.904-37.601l19.138-28.021l4.341-6.328h-15.115l-3.136,4.603l-6.117,8.94
			L512.1,406.08v-40.313h-13.599v78.017H512.1v-15.635l11.292-16.369l13.018,22.323l2.874,4.922l2.773,4.759h14.695L553.192,437.716
			z"/>
		<path fill="#F16724" d="M561.659,365.873l3.242,4.76l3.294,4.702h15.427v68.554h13.591v-68.554h15.375l3.293-4.702l3.242-4.76
			H561.659z"/>
		<path fill="#F16724" d="M530.398,379.31l6.117-8.94L530.398,379.31z"/>
	</g>
	<g>
		<path fill="#F16724" d="M348.604,98.642h-82.637v153.346h26.73V117.241h42.551v67.838h-34.029l12.746,18.799h34.639l13.36-9.344
			v-86.539L348.604,98.642z"/>
		<path fill="#F16724" d="M485.128,172.383l-21.69,37.325l3.74-27.902l5.517-9.441l-3.41-5.985l2.339-17.556L485.128,172.383z
			 M400.514,286.153l-11.754,20.173l-36.025-0.071l-0.596-0.199L400.514,286.153z M257.159,305.989l-23.366-0.081l-18.453-32.174
			L257.159,305.989z M222.785,57.709l8.92-15.298l11.865-4.922l28.105,0.107L222.785,57.709z M297.906,32.413l25.965-10.691
			l12.861,0.05l14.037,10.812L297.906,32.413z M366.166,37.825l17.671,0.054l10.177,7.872l13.969,24.327L366.166,37.825z
			 M425.59,90.236l22.288,17.188l6.357,11.091l-2.354,17.601L425.59,90.236z M439.347,229.73l-3.749,27.908l-6.384,11.021
			l-16.44,6.779L439.347,229.73z M446.223,217.94l14.123-24.33l-3.74,27.91l-14.129,24.334L446.223,217.94z M463.828,167.436
			l-1.692,12.634l-14.129,24.328l7.003-52.326L463.828,167.436z M464.987,158.93l-8.812-15.364l2.338-17.556l8.81,15.364
			L464.987,158.93z M472.071,105.901l-3.574,26.92l-8.81-15.364l0.905-6.816l-8.696-6.699l-13.964-24.332L472.071,105.901z
			 M441.066,95.567L418.777,78.38l-13.971-24.326l22.299,17.188L441.066,95.567z M398.819,21.967l21.517,37.429l-22.289-17.178
			l-5.514-9.532l-6.914,0.006L371.638,21.9L398.819,21.967z M377.055,32.671l-17.722-0.073l-13.985-10.784l17.676,0.058
			L377.055,32.671z M334.666,0l21.552,16.596l-17.679-0.062l-5.518-4.217l-10.177,4.181l-28.06-0.093L334.666,0z M282.153,21.626
			l28.073,0.042L284.313,32.38l-28.124-0.059L282.153,21.626z M225.379,21.435l43.137,0.146l-25.971,10.691l-10.993-0.021
			l-3.497,5.979l-16.376,6.756L225.379,21.435z M207.359,52.4l16.354-6.704l-8.857,15.307l-16.357,6.704L207.359,52.4z
			 M210.523,68.413l-26.479,45.638l3.728-27.862l6.388-11.016L210.523,68.413z M177.162,125.835l-14.14,24.382l3.722-27.858
			l14.149-24.382L177.162,125.835z M174.291,66.063l25.135-10.369l-8.912,15.292l-6.365,2.614l-1.421,10.852l-14.188,24.365
			L174.291,66.063z M138.246,171.444l21.626-37.296l-3.731,27.86l-5.459,9.454l3.406,5.985l-2.334,17.554L138.246,171.444z
			 M159.494,176.377l1.69-12.634l14.199-24.367l-7.025,52.382L159.494,176.377z M158.381,184.894l8.813,15.369l-2.352,17.601
			l-8.859-15.379L158.381,184.894z M151.345,237.327l3.528-26.321l8.809,15.366l-0.908,6.82l8.652,6.68l3.121,5.387L151.345,237.327
			z M175.461,236.337l-6.326-11.023l2.339-17.554l26.03,45.348L175.461,236.337z M224.53,321.906l-38.581-67.191l8.471,2.854
			l10.142,7.813l26.224,45.742l33.2,0.085l14.068,10.871L224.53,321.906z M299.387,322.124l-12.764-0.024l-14.019-10.855
			l52.813,0.153L299.387,322.124z M313.025,322.172l26.031-10.723l12.816,0.04l31.754,10.882L313.025,322.172z M398.303,321.829
			l-30.127-10.309l23.591,0.045l16.688-28.712l16.415-6.729L398.303,321.829z"/>
		<path fill="#F16724" d="M293.188,266.214v0.208h0.312C293.394,266.372,293.289,266.315,293.188,266.214z"/>
	</g>
</g>
</svg>
