<?xml version="1.0" encoding="utf-8"?>
<!-- Generator: Adobe Illustrator 16.0.0, SVG Export Plug-In . SVG Version: 6.00 Build 0)  -->
<!DOCTYPE svg PUBLIC "-//W3C//DTD SVG 1.1//EN" "http://www.w3.org/Graphics/SVG/1.1/DTD/svg11.dtd">
<svg version="1.1" id="Vrstva_1" xmlns="http://www.w3.org/2000/svg" xmlns:xlink="http://www.w3.org/1999/xlink" x="0px" y="0px"
	 width="1420.245px" height="328.927px" viewBox="114.062 -6.555 1420.245 328.927"
	 enable-background="new 114.062 -6.555 1420.245 328.927" xml:space="preserve">
<g id="color" display="none">
	<g display="inline">
		
			<linearGradient id="SVGID_1_" gradientUnits="userSpaceOnUse" x1="-916.728" y1="400.7112" x2="-399.0061" y2="401.5655" gradientTransform="matrix(1 0 0 -1 0.04 443.0435)">
			<stop  offset="0" style="stop-color:#692C90"/>
			<stop  offset="1" style="stop-color:#C63292"/>
		</linearGradient>
		<path fill="url(#SVGID_1_)" d="M-827.803,57.533l-5.827-8.51h1.155l3.196-2.234V26.088l-3.196-2.238h-19.768v36.686h6.418V28.299
			h10.154v16.229h-8.14l1.453,2.115l4.891,7.128l3.124,4.575l1.5,2.188h7.054L-827.803,57.533z"/>
		
			<linearGradient id="SVGID_2_" gradientUnits="userSpaceOnUse" x1="-916.728" y1="400.7737" x2="-399.0104" y2="401.6281" gradientTransform="matrix(1 0 0 -1 0.04 443.0435)">
			<stop  offset="0" style="stop-color:#692C90"/>
			<stop  offset="1" style="stop-color:#C63292"/>
		</linearGradient>
		<path fill="url(#SVGID_2_)" d="M-860.651,23.85h-19.767v36.686h6.394V28.299h10.178v16.229h-8.139l3.049,4.497h8.285l3.196-2.234
			V26.088L-860.651,23.85z"/>
		
			<linearGradient id="SVGID_3_" gradientUnits="userSpaceOnUse" x1="-916.7261" y1="400.6145" x2="-399.0093" y2="401.4688" gradientTransform="matrix(1 0 0 -1 0.04 443.0435)">
			<stop  offset="0" style="stop-color:#692C90"/>
			<stop  offset="1" style="stop-color:#C63292"/>
		</linearGradient>
		<path fill="url(#SVGID_3_)" d="M-801.939,23.9h-16.572l-3.196,2.237v32.208l3.196,2.237h16.572l3.196-2.237V26.138L-801.939,23.9z
			 M-805.135,56.131h-10.178V28.35h10.178V56.131z"/>
		
			<linearGradient id="SVGID_4_" gradientUnits="userSpaceOnUse" x1="-916.7314" y1="400.6282" x2="-398.9921" y2="401.4826" gradientTransform="matrix(1 0 0 -1 0.04 443.0435)">
			<stop  offset="0" style="stop-color:#692C90"/>
			<stop  offset="1" style="stop-color:#C63292"/>
		</linearGradient>
		<path fill="url(#SVGID_4_)" d="M-772.731,23.85h-19.768v36.686h6.394V28.299h10.178v16.229h-8.137l3.047,4.497h8.286l3.198-2.234
			V26.088L-772.731,23.85z"/>
		
			<linearGradient id="SVGID_5_" gradientUnits="userSpaceOnUse" x1="-916.7285" y1="400.5667" x2="-399.0018" y2="401.4211" gradientTransform="matrix(1 0 0 -1 0.04 443.0435)">
			<stop  offset="0" style="stop-color:#692C90"/>
			<stop  offset="1" style="stop-color:#C63292"/>
		</linearGradient>
		<path fill="url(#SVGID_5_)" d="M-739.883,57.533l-5.827-8.51h1.155l3.198-2.234V26.088l-3.198-2.238h-19.741v36.686h6.392V28.299
			h10.154v16.229h-8.137l1.474,2.115l4.13,6.046l3.861,5.657l1.5,2.188h7.057L-739.883,57.533z"/>
		
			<linearGradient id="SVGID_6_" gradientUnits="userSpaceOnUse" x1="-916.7231" y1="400.47" x2="-399.0103" y2="401.3243" gradientTransform="matrix(1 0 0 -1 0.04 443.0435)">
			<stop  offset="0" style="stop-color:#692C90"/>
			<stop  offset="1" style="stop-color:#C63292"/>
		</linearGradient>
		<path fill="url(#SVGID_6_)" d="M-714.02,23.9h-16.569l-3.197,2.237v32.208l3.197,2.237h16.569l3.198-2.237V26.138L-714.02,23.9z
			 M-717.215,56.131h-10.179V28.35h10.179V56.131z"/>
		
			<linearGradient id="SVGID_7_" gradientUnits="userSpaceOnUse" x1="-916.7212" y1="400.4729" x2="-399.0128" y2="401.3272" gradientTransform="matrix(1 0 0 -1 0.04 443.0435)">
			<stop  offset="0" style="stop-color:#692C90"/>
			<stop  offset="1" style="stop-color:#C63292"/>
		</linearGradient>
		<path fill="url(#SVGID_7_)" d="M-688.007,56.083h-10.178V28.299h10.178V56.083z M-684.809,23.85h-19.768v36.686h19.768
			l3.195-2.237v-32.21L-684.809,23.85z"/>
		
			<linearGradient id="SVGID_8_" gradientUnits="userSpaceOnUse" x1="-916.7266" y1="400.426" x2="-399.0071" y2="401.2803" gradientTransform="matrix(1 0 0 -1 0.04 443.0435)">
			<stop  offset="0" style="stop-color:#692C90"/>
			<stop  offset="1" style="stop-color:#C63292"/>
		</linearGradient>
		<path fill="url(#SVGID_8_)" d="M-659.831,23.85v32.233h-10.154V23.85h-6.392v34.447l3.195,2.237h16.572l3.196-2.237V23.85
			H-659.831z"/>
		
			<linearGradient id="SVGID_9_" gradientUnits="userSpaceOnUse" x1="-916.7295" y1="400.3704" x2="-398.9981" y2="401.2248" gradientTransform="matrix(1 0 0 -1 0.04 443.0435)">
			<stop  offset="0" style="stop-color:#692C90"/>
			<stop  offset="1" style="stop-color:#C63292"/>
		</linearGradient>
		<path fill="url(#SVGID_9_)" d="M-620.297,57.682l-10.3-17.681l8.999-13.176l2.041-2.977h-7.107l-1.475,2.164l-2.876,4.204
			l-8.604,12.588V23.85h-6.395v36.686h6.395v-7.353l5.31-7.697l6.121,10.497l1.352,2.314l1.304,2.237h6.91L-620.297,57.682z"/>
		
			<linearGradient id="SVGID_10_" gradientUnits="userSpaceOnUse" x1="-916.7256" y1="400.3274" x2="-399.0054" y2="401.1817" gradientTransform="matrix(1 0 0 -1 0.04 443.0435)">
			<stop  offset="0" style="stop-color:#692C90"/>
			<stop  offset="1" style="stop-color:#C63292"/>
		</linearGradient>
		<path fill="url(#SVGID_10_)" d="M-614.315,23.85l1.524,2.238l1.549,2.211h7.254v32.235h6.391V28.299h7.229l1.549-2.211
			l1.524-2.238H-614.315z"/>
		
			<linearGradient id="SVGID_11_" gradientUnits="userSpaceOnUse" x1="-916.647" y1="414.4426" x2="-399.1097" y2="415.2967" gradientTransform="matrix(1 0 0 -1 0.04 443.0435)">
			<stop  offset="0" style="stop-color:#692C90"/>
			<stop  offset="1" style="stop-color:#C63292"/>
		</linearGradient>
		<path fill="url(#SVGID_11_)" d="M-631.015,30.218l2.876-4.204L-631.015,30.218z"/>
	</g>
	<g display="inline">
		
			<linearGradient id="SVGID_12_" gradientUnits="userSpaceOnUse" x1="-755.395" y1="508.7483" x2="-710.2549" y2="508.7483" gradientTransform="matrix(1 0 0 -1 0.04 443.0435)">
			<stop  offset="0" style="stop-color:#692C90"/>
			<stop  offset="1" style="stop-color:#C63292"/>
		</linearGradient>
		<path fill="url(#SVGID_12_)" d="M-716.498-101.758h-38.857v72.105h12.569v-63.36h20.008v31.898h-16l5.993,8.84h16.288l6.282-4.394
			V-97.36L-716.498-101.758z"/>
		
			<linearGradient id="SVGID_13_" gradientUnits="userSpaceOnUse" x1="-815.4521" y1="515.3918" x2="-652.3418" y2="515.3918" gradientTransform="matrix(1 0 0 -1 0.04 443.0435)">
			<stop  offset="0" style="stop-color:#692C90"/>
			<stop  offset="1" style="stop-color:#C63292"/>
		</linearGradient>
		<path fill="url(#SVGID_13_)" d="M-652.302-67.083l-10.199,17.551l1.759-13.12l2.594-4.438l-1.604-2.814l1.1-8.255L-652.302-67.083
			z M-692.089-13.586l-5.527,9.484l-16.939-0.032l-0.28-0.095L-692.089-13.586z M-759.497-4.259l-10.987-0.038l-8.677-15.13
			L-759.497-4.259z M-775.66-121.004l4.194-7.193l5.58-2.314l13.215,0.051L-775.66-121.004z M-740.337-132.899l12.209-5.027
			l6.048,0.023l6.601,5.083L-740.337-132.899z M-708.24-130.354l8.31,0.024l4.785,3.702l6.568,11.438L-708.24-130.354z
			 M-680.298-105.71l10.48,8.082l2.989,5.215l-1.107,8.275L-680.298-105.71z M-673.829-40.117l-1.763,13.123l-3.002,5.183
			l-7.73,3.188L-673.829-40.117z M-670.596-45.661l6.641-11.44l-1.759,13.124l-6.644,11.442L-670.596-45.661z M-662.317-69.409
			l-0.796,5.939l-6.644,11.439l3.293-24.604L-662.317-69.409z M-661.772-73.409l-4.144-7.225l1.1-8.256l4.143,7.226L-661.772-73.409
			z M-658.441-98.344l-1.681,12.658l-4.143-7.225l0.426-3.205l-4.089-3.15l-6.566-11.44L-658.441-98.344z M-673.021-103.203
			l-10.48-8.082l-6.569-11.438l10.485,8.082L-673.021-103.203z M-692.886-137.812l10.117,17.601l-10.48-8.077l-2.593-4.482
			l-3.251,0.002l-6.574-5.074L-692.886-137.812z M-703.12-132.779l-8.333-0.034l-6.576-5.071l8.312,0.026L-703.12-132.779z
			 M-723.052-148.141l10.134,7.804l-8.313-0.029l-2.595-1.983l-4.785,1.966l-13.194-0.043L-723.052-148.141z M-747.744-137.972
			l13.2,0.021l-12.185,5.037l-13.225-0.026L-747.744-137.972z M-774.44-138.061l20.283,0.067l-12.211,5.026l-5.169-0.009
			l-1.645,2.813l-7.7,3.177L-774.44-138.061z M-782.914-123.501l7.69-3.152l-4.166,7.198l-7.69,3.151L-782.914-123.501z
			 M-781.425-115.972l-12.451,21.46l1.752-13.102l3.004-5.18L-781.425-115.972z M-797.113-88.971l-6.648,11.466l1.75-13.101
			l6.653-11.465L-797.113-88.971z M-798.463-117.076l11.818-4.876l-4.19,7.19l-2.994,1.229l-0.667,5.103l-6.672,11.457
			L-798.463-117.076z M-815.412-67.524l10.168-17.537l-1.755,13.102l-2.566,4.444l1.602,2.814l-1.097,8.254L-815.412-67.524z
			 M-805.421-65.205l0.795-5.94l6.677-11.458l-3.304,24.631L-805.421-65.205z M-805.944-61.2l4.144,7.227l-1.106,8.276l-4.166-7.231
			L-805.944-61.2z M-809.253-36.545l1.659-12.377l4.142,7.226l-0.427,3.207l4.069,3.141l1.467,2.533L-809.253-36.545z
			 M-797.913-37.011l-2.975-5.184l1.1-8.254l12.24,21.323L-797.913-37.011z M-774.839,3.226l-18.142-31.595l3.983,1.342l4.769,3.674
			l12.332,21.509l15.611,0.04l6.615,5.111L-774.839,3.226z M-739.641,3.328l-6.002-0.013l-6.591-5.104l24.833,0.072L-739.641,3.328z
			 M-733.228,3.351l12.24-5.042l6.026,0.02l14.932,5.116L-733.228,3.351z M-693.129,3.189l-14.166-4.848l11.093,0.021l7.847-13.501
			l7.719-3.164L-693.129,3.189z"/>
		
			<linearGradient id="SVGID_14_" gradientUnits="userSpaceOnUse" x1="-742.5957" y1="465.9563" x2="-742.4492" y2="465.9563" gradientTransform="matrix(1 0 0 -1 0.04 443.0435)">
			<stop  offset="0" style="stop-color:#692C90"/>
			<stop  offset="1" style="stop-color:#C63292"/>
		</linearGradient>
		<path fill="url(#SVGID_14_)" d="M-742.556-22.962v0.098h0.146C-742.459-22.888-742.507-22.914-742.556-22.962z"/>
	</g>
</g>
<g>
	<path fill="#FFFFFF" d="M348.604,98.642h-82.638v153.346h26.73V117.24h42.551v67.839h-34.029l12.746,18.799h34.64l13.359-9.344
		v-86.539L348.604,98.642z"/>
	<path fill="#FFFFFF" d="M485.128,172.383l-21.689,37.325l3.739-27.902l5.518-9.441l-3.41-5.984l2.339-17.557L485.128,172.383z
		 M400.514,286.153l-11.754,20.174l-36.024-0.071l-0.597-0.199L400.514,286.153z M257.159,305.989l-23.366-0.08l-18.453-32.175
		L257.159,305.989z M222.785,57.709l8.92-15.298l11.865-4.923l28.105,0.107L222.785,57.709z M297.906,32.413l25.965-10.691
		l12.861,0.05l14.036,10.813L297.906,32.413z M366.166,37.825l17.671,0.054l10.177,7.872l13.97,24.327L366.166,37.825z
		 M425.59,90.236l22.288,17.188l6.357,11.091l-2.354,17.601L425.59,90.236z M439.347,229.73l-3.749,27.908l-6.384,11.021
		l-16.439,6.778L439.347,229.73z M446.223,217.94l14.123-24.33l-3.739,27.91l-14.13,24.334L446.223,217.94z M463.828,167.436
		l-1.692,12.634l-14.129,24.328l7.003-52.326L463.828,167.436z M464.987,158.93l-8.813-15.364l2.338-17.556l8.811,15.364
		L464.987,158.93z M472.071,105.901l-3.574,26.92l-8.811-15.363l0.905-6.816l-8.696-6.699L437.932,79.61L472.071,105.901z
		 M441.066,95.567L418.777,78.38l-13.972-24.326l22.3,17.188L441.066,95.567z M398.819,21.967l21.517,37.429l-22.289-17.178
		l-5.514-9.532l-6.914,0.006L371.638,21.9L398.819,21.967z M377.055,32.671l-17.722-0.073l-13.985-10.784l17.677,0.059
		L377.055,32.671z M334.666,0l21.552,16.596l-17.679-0.062l-5.519-4.218l-10.177,4.182l-28.06-0.094L334.666,0z M282.153,21.626
		l28.073,0.042L284.313,32.38l-28.124-0.06L282.153,21.626z M225.379,21.435l43.137,0.146l-25.971,10.69l-10.993-0.021l-3.497,5.979
		l-16.376,6.756L225.379,21.435z M207.359,52.4l16.354-6.704l-8.857,15.308l-16.357,6.704L207.359,52.4z M210.523,68.413
		l-26.479,45.638l3.728-27.862l6.388-11.016L210.523,68.413z M177.162,125.835l-14.14,24.382l3.722-27.858l14.149-24.382
		L177.162,125.835z M174.291,66.063l25.135-10.369l-8.912,15.292l-6.365,2.614l-1.421,10.853l-14.188,24.364L174.291,66.063z
		 M138.246,171.444l21.626-37.296l-3.731,27.86l-5.459,9.454l3.406,5.984l-2.334,17.555L138.246,171.444z M159.494,176.377
		l1.69-12.634l14.199-24.367l-7.025,52.382L159.494,176.377z M158.381,184.894l8.813,15.369l-2.352,17.601l-8.859-15.379
		L158.381,184.894z M151.345,237.327l3.528-26.321l8.809,15.366l-0.908,6.819l8.652,6.681l3.121,5.387L151.345,237.327z
		 M175.461,236.337l-6.326-11.023l2.339-17.554l26.03,45.348L175.461,236.337z M224.53,321.906l-38.581-67.19l8.471,2.854
		l10.142,7.813l26.224,45.742l33.2,0.085l14.068,10.871L224.53,321.906z M299.387,322.124l-12.764-0.024l-14.019-10.854
		l52.813,0.152L299.387,322.124z M313.025,322.172l26.03-10.724l12.816,0.04l31.754,10.883L313.025,322.172z M398.303,321.829
		l-30.127-10.31l23.591,0.045l16.688-28.712l16.415-6.729L398.303,321.829z"/>
	<path fill="#FFFFFF" d="M293.188,266.214v0.208h0.312C293.394,266.372,293.289,266.315,293.188,266.214z"/>
</g>
<g>
	<path fill="#FFFFFF" d="M716.168,227.94l-19.99-29.187h3.963l10.96-7.667v-71.012l-10.96-7.678h-67.807v125.839h22.014V127.659
		h34.831v55.669h-27.924l4.985,7.255l16.775,24.449l10.718,15.695l5.148,7.505h24.196L716.168,227.94z"/>
	<path fill="#FFFFFF" d="M603.489,112.399h-67.807v125.838h21.933V127.66h34.915v55.669h-27.92l10.46,15.425h28.419l10.961-7.667
		v-71.011L603.489,112.399z"/>
	<path fill="#FFFFFF" d="M804.884,112.573H748.04l-10.963,7.675v110.482l10.963,7.674h56.844l10.963-7.674V120.248L804.884,112.573z
		 M793.924,223.131h-34.912v-95.296h34.912V223.131z"/>
	<path fill="#FFFFFF" d="M905.079,112.399h-67.808v125.838h21.934V127.66h34.911v55.669h-27.912l10.451,15.425h28.424l10.968-7.667
		v-71.011L905.079,112.399z"/>
	<path fill="#FFFFFF" d="M1017.754,227.94l-19.993-29.187h3.967l10.967-7.667v-71.012l-10.967-7.678h-67.721v125.839h21.929V127.659
		h34.828v55.669h-27.913l5.058,7.255l14.166,20.739l13.24,19.406l5.149,7.505h24.208L1017.754,227.94z"/>
	<path fill="#FFFFFF" d="M1106.471,112.573h-56.84l-10.965,7.675v110.482l10.965,7.674h56.84l10.973-7.674V120.248L1106.471,112.573
		z M1095.51,223.131h-34.914v-95.296h34.914V223.131z"/>
	<path fill="#FFFFFF" d="M1195.7,222.966h-34.912v-95.307h34.912V222.966z M1206.672,112.399h-67.808v125.838h67.808l10.961-7.675
		V120.076L1206.672,112.399z"/>
	<path fill="#FFFFFF" d="M1292.353,112.399v110.567h-34.834V112.399h-21.926v118.163l10.959,7.675h56.848l10.964-7.675V112.399
		H1292.353L1292.353,112.399z"/>
	<path fill="#FFFFFF" d="M1427.965,228.45l-35.332-60.65l30.867-45.196l7.003-10.208h-24.38l-5.059,7.425l-9.864,14.42
		l-29.52,43.181v-65.024h-21.932v125.838h21.932v-25.218l18.216-26.402l20.996,36.006l4.639,7.939l4.471,7.675h23.701
		L1427.965,228.45z"/>
	<path fill="#FFFFFF" d="M1441.621,112.571l5.229,7.678l5.313,7.583h24.883v110.576h21.922V127.832h24.798l5.312-7.583l5.23-7.678
		H1441.621L1441.621,112.571z"/>
	<path fill="#FFFFFF" d="M1391.197,134.243l9.867-14.419L1391.197,134.243z"/>
</g>
</svg>
